<?xml version="1.0" encoding="utf-8"?>
<!-- Generator: Adobe Illustrator 24.0.1, SVG Export Plug-In . SVG Version: 6.00 Build 0)  -->
<svg version="1.1" id="Layer_1" xmlns="http://www.w3.org/2000/svg" xmlns:xlink="http://www.w3.org/1999/xlink" x="0px" y="0px"
	 viewBox="0 0 800 800" style="enable-background:new 0 0 800 800;" xml:space="preserve">
<style type="text/css">
	.st0{fill:none;stroke:#F4AA49;stroke-width:16.4328;stroke-miterlimit:10;}
	.st1{fill:none;stroke:#F4AA49;stroke-width:17.4821;stroke-miterlimit:10;}
	.st2{fill:none;stroke:#F4AA49;stroke-width:17.4821;stroke-linecap:round;stroke-linejoin:round;stroke-miterlimit:10;}
	.st3{fill:none;stroke:#F4AA49;stroke-width:27.8204;stroke-linecap:round;stroke-miterlimit:10;}
	.st4{fill:none;stroke:#F4AA49;stroke-width:25.0936;stroke-linecap:round;stroke-miterlimit:10;}
	.st5{fill:none;stroke:#F4AA49;stroke-width:32.8656;stroke-linecap:round;stroke-miterlimit:10;}
</style>
<g>
	<path class="st0" d="M647.56,672.2c0,0-38.69-6.34-125.83-2.43c-70.68,3.17-125.91,19.71-174.57,19.22
		c-39.4-0.4-306.28-198.87-306.28-198.87s-29.16-14.51-4.2-44.98c0,0,17.62-19.63,42.8-7.04c25.17,12.59,182.09,86.69,182.09,86.69"
		/>
	<path class="st1" d="M765.43,715H658.91c-4.4,0-7.99-3.6-7.99-7.99V453.12c0-4.4,3.6-7.99,7.99-7.99h106.53
		c4.4,0,7.99,3.6,7.99,7.99v253.88C773.43,711.4,769.83,715,765.43,715z"/>
	<path class="st2" d="M650.91,490.95c0,0-63.77-22.66-109.92-21.82c-46.15,0.84-98.18,28.53-119.99,28.53s-119.16-7.55-119.16-7.55
		s-47.03,2.9-45.75,32.08c1.28,29.18,50.79,33.37,50.79,33.37l178.73,5.87"/>
	<line class="st3" x1="266.04" y1="201.44" x2="266.04" y2="309.41"/>
	<line class="st3" x1="212.05" y1="255.42" x2="320.02" y2="255.42"/>
	<line class="st4" x1="404.8" y1="53.49" x2="404.8" y2="150.88"/>
	<line class="st4" x1="356.1" y1="102.18" x2="453.49" y2="102.18"/>
	<line class="st5" x1="517.26" y1="225.51" x2="517.26" y2="353.06"/>
	<line class="st5" x1="453.49" y1="289.29" x2="581.03" y2="289.29"/>
</g>
</svg>
