<?xml version="1.0" encoding="utf-8"?>
<!-- Generator: Adobe Illustrator 24.0.1, SVG Export Plug-In . SVG Version: 6.00 Build 0)  -->
<svg version="1.1" id="Layer_1" xmlns="http://www.w3.org/2000/svg" xmlns:xlink="http://www.w3.org/1999/xlink" x="0px" y="0px"
	 viewBox="0 0 800 800" style="enable-background:new 0 0 800 800;" xml:space="preserve">
<style type="text/css">
	.st0{fill:none;stroke:#F4AA49;stroke-width:17.3539;stroke-miterlimit:10;}
	.st1{fill:none;stroke:#F4AA49;stroke-width:17.3539;stroke-linecap:round;stroke-miterlimit:10;}
</style>
<g>
	<path class="st0" d="M615.64,780.31l-416.46,1.35c-47.41,0.17-77.19-51.05-53.62-92.18l183.26-319.83V62.59c0-0.06,0-0.11,0-0.17
		c0.04-8.6-6.6-15.73-15.2-15.73l-14.28,0c-6.86,0-13.14-4.61-14.49-11.34c-1-4.98,0.69-9.66,3.88-12.85
		c2.57-2.57,6.11-4.16,10-4.16h216.16c7.81,0,14.16,6.39,14.16,14.16c0,3.89-1.6,7.46-4.16,10.03c-2.57,2.57-6.11,4.17-10,4.17
		h-14.89c-8.6,0-15.24,7.12-15.2,15.73c0,0.06,0,0.11,0,0.17V371.7l183.85,316.08C692.49,728.77,663.02,780.17,615.64,780.31z"/>
	<line class="st1" x1="484.79" y1="172.97" x2="392.28" y2="172.97"/>
	<line class="st1" x1="484.79" y1="281.96" x2="392.28" y2="281.96"/>
	<line class="st1" x1="249.37" y1="508.31" x2="564.25" y2="508.31"/>
	<circle class="st1" cx="338.44" cy="600.31" r="33.9"/>
	<circle class="st1" cx="525.2" cy="682.73" r="33.9"/>
</g>
</svg>
