<?xml version="1.0" encoding="utf-8"?>
<!-- Generator: Adobe Illustrator 24.0.1, SVG Export Plug-In . SVG Version: 6.00 Build 0)  -->
<svg version="1.1" id="Layer_1" xmlns="http://www.w3.org/2000/svg" xmlns:xlink="http://www.w3.org/1999/xlink" x="0px" y="0px"
	 viewBox="0 0 800 800" style="enable-background:new 0 0 800 800;" xml:space="preserve">
<style type="text/css">
	.st0{fill:none;stroke:#F4AA49;stroke-width:16.7171;stroke-miterlimit:10;}
</style>
<g>
	<path class="st0" d="M401.24,93.79c16.57,0,116.45,170.21,115.02,291.78S401.24,502.86,401.24,502.86s-113.59,4.29-115.02-117.29
		C284.79,264,384.67,93.79,401.24,93.79z"/>
	<path class="st0" d="M522.88,192.21c0,0,44.46,89.97,51.87,139.72c7.41,49.75-10.58,133.37-10.58,133.37s98.44-30.7,74.09-173.59
		c-24.35-142.9-25.4-169.36-45.52-166.18C572.62,128.7,522.88,192.21,522.88,192.21z"/>
	<path class="st0" d="M279.38,192.21c0,0-44.46,89.97-51.87,139.72c-7.41,49.75,10.58,133.37,10.58,133.37S139.65,434.6,164,291.71
		s25.4-169.36,45.52-166.18C229.63,128.7,279.38,192.21,279.38,192.21z"/>
	<path class="st0" d="M688,326.64l69.86-5.29c0,0,13.76-1.06,22.23,10.58c8.47,11.64-4.23,27.52-4.23,27.52
		s-95.26,185.24-186.29,153.48C589.56,512.93,692.23,482.24,688,326.64z"/>
	<path class="st0" d="M114.16,326.64l-69.86-5.29c0,0-13.76-1.06-22.23,10.58s4.23,27.52,4.23,27.52s95.26,185.24,186.29,153.48
		C212.6,512.93,109.92,482.24,114.16,326.64z"/>
	<path class="st0" d="M395.82,698.17c106.82-34.93,90.06-147.13,90.06-147.13s-35.11,26.46-90.06,26.46h5.42
		c-54.95,0-90.06-26.46-90.06-26.46s-16.76,112.2,90.06,147.13"/>
	<path class="st0" d="M115.88,551.04c0,0,27.35,22.23,71.1,22.23s70.57-22.23,70.57-22.23v73.57c0,0-34.41,19.23-70.83,16.41
		s-65.72-12.7-70.83-23.99C110.77,605.73,115.88,551.04,115.88,551.04z"/>
	<path class="st0" d="M684.01,551.04c0,0-27.35,22.23-71.1,22.23s-70.57-22.23-70.57-22.23v73.57c0,0,34.41,19.23,70.83,16.41
		s65.72-12.7,70.83-23.99C689.12,605.73,684.01,551.04,684.01,551.04z"/>
</g>
</svg>
