<?xml version="1.0" encoding="utf-8"?>
<!-- Generator: Adobe Illustrator 24.0.1, SVG Export Plug-In . SVG Version: 6.00 Build 0)  -->
<svg version="1.1" id="Layer_1" xmlns="http://www.w3.org/2000/svg" xmlns:xlink="http://www.w3.org/1999/xlink" x="0px" y="0px"
	 viewBox="0 0 800 800" style="enable-background:new 0 0 800 800;" xml:space="preserve">
<style type="text/css">
	.st0{fill:url(#SVGID_1_);}
	.st1{fill:url(#SVGID_2_);}
</style>
<g>
	<linearGradient id="SVGID_1_" gradientUnits="userSpaceOnUse" x1="389.8667" y1="95.4227" x2="423.4184" y2="677.3149">
		<stop  offset="7.512183e-07" style="stop-color:#F7D28E"/>
		<stop  offset="1" style="stop-color:#F49A40"/>
	</linearGradient>
	<path class="st0" d="M697.54,383.72l-3.7-4.61c-1.44-1.79-35.09-43.29-87.79-78.44c6.38-32.71,7.7-62.92,7.67-82.88v-0.03
		c0.03-20.81-1.38-34-1.44-34.56l-0.62-5.88l-5.88-0.65c-2.29-0.23-55.63-5.85-117.94,6.67c-34.86-51.23-75.03-83.76-76.77-85.17
		l-4.61-3.7l-4.58,3.7c-1.76,1.41-42.47,34.42-77.47,86.26c-61.98-12.26-114.91-6.73-117.21-6.49l-5.88,0.65l-0.62,5.88
		c-0.06,0.53-1.44,13.58-1.41,34.18v0.03c-0.06,19.75,1.23,49.64,7.41,82.14c-52.58,35.15-86.11,76.53-87.55,78.29l-3.7,4.61
		l0.68,0.82l0.06,0.06l-0.06,0.06l3.85,4.64c6.08,7.32,38.12,44.64,85.94,76.77l-0.32,1.53c0.03,0.03,0.03,0.06,0.06,0.06v0.09
		c-6.17,31.83-7.55,61.13-7.61,80.53v0.03c-0.15,21.92,1.35,35.88,1.41,36.47l0.65,5.88l5.88,0.65c1.09,0.12,13.84,1.44,33.68,1.44
		c21.28,0,50.64-1.53,82.53-7.76h0.03c35.41,53.72,77.85,88.14,79.67,89.61l4.61,3.7l4.61-3.7c1.79-1.44,43.64-35.41,78.94-88.49
		v-0.03h0.06c32.18,6.38,61.81,7.94,83.26,7.94c19.81,0,32.56-1.32,33.68-1.44l5.88-0.65l0.62-5.88c0.06-0.56,1.44-13.61,1.41-34.27
		l-14.69-0.03c0,10.96-0.44,19.57-0.82,24.92c-15.22,1.03-57.49,2.67-104.6-6.38l-1.79-0.35c-1.29-0.26-2.59-0.53-3.91-0.79
		l-4.97-1.03l-0.97,1.5v0.03l-0.94-0.21v-0.03c-22.66-5.2-43.38-12.43-61.81-21.51c13.2-8.26,25.13-17.72,35.56-28.16
		c1.94-1.97,3.85-3.94,5.73-5.94c12.73-13.46,23.22-27.27,31.27-41.03c14.02-8.26,28.07-19.02,41.73-31.98c2-1.88,4-3.79,6-5.79
		c10.43-10.46,19.9-22.4,28.16-35.59c9.67,19.6,17.19,41.79,22.45,66.13l0.15,0.65c7.2,33.53,8.73,65.04,8.76,85.52l14.69,0.03
		c0.06-20.19-1.29-50.7-7.76-83.82c-0.03-0.03-0.03-0.06-0.03-0.09c0,0,0.03,0,0.03-0.03l-0.32-1.59
		c47.91-32.18,80.06-69.57,86.17-76.91l3.82-4.64l-0.06-0.06l0.06-0.06L697.54,383.72z M365.87,156.39c0.88-1,1.73-2,2.62-2.97
		c3.59-4.08,7.05-7.88,10.4-11.4c1.5-1.59,2.94-3.12,4.38-4.58c2.32-2.38,4.56-4.61,6.64-6.67c1.18-1.15,2.29-2.23,3.38-3.29
		c0.91-0.85,1.76-1.7,2.62-2.5c1.41-1.32,2.73-2.56,3.97-3.7c1.65-1.53,3.14-2.88,4.47-4.06c0.32-0.29,0.65-0.59,0.97-0.85
		c0.03-0.03,0.06-0.06,0.09-0.09c0.38-0.35,0.73-0.68,1.09-0.97c1.12,0.97,2.41,2.12,3.85,3.44c2.41,2.17,5.29,4.82,8.49,7.91
		c0,0,0,0,0.03,0.03c1.26,1.21,2.62,2.5,4,3.91c0.71,0.68,1.41,1.38,2.12,2.09c0.73,0.71,1.47,1.44,2.17,2.18
		c0.76,0.73,1.5,1.5,2.26,2.26c0.76,0.82,1.53,1.65,2.35,2.47c3.91,4.09,8.05,8.55,12.31,13.37c0.85,0.97,1.7,1.94,2.59,2.94
		c2.62,2.97,5.23,6.08,7.88,9.32c0.97,1.21,1.94,2.41,2.97,3.64c1.23,1.56,2.47,3.12,3.7,4.7c0.91,1.2,1.85,2.41,2.79,3.64
		c2.79,3.64,5.55,7.44,8.32,11.34h-0.03c-24.69,6.08-47.17,14.52-66.98,25.1l-0.03,0.03c-19.43-10.14-41.35-18.19-65.36-24.04
		C348.5,177.34,357.41,166.18,365.87,156.39z M213.99,218.64c0.03-10.9,0.47-19.48,0.82-24.8c15.96-1.09,61.54-2.82,111.47,7.76
		l4.91,1.06c21.48,4.91,41.26,11.58,58.98,19.93c-12.78,8.08-24.33,17.28-34.42,27.39c-2.44,2.41-4.73,4.82-6.91,7.17
		c-12.17,12.99-22.28,26.39-30.09,39.82c-13.67,8.02-27.33,18.4-40.65,30.86c-2.38,2.23-4.76,4.53-7.11,6.91
		c-10.08,10.05-19.28,21.57-27.42,34.39c-8.7-18.43-15.55-39.06-20.46-61.51l0.29-0.18l-1.03-4.94
		c-6.91-32.92-8.38-63.75-8.41-83.82V218.64z M203.08,446.2c-0.09-0.09-0.18-0.15-0.26-0.21c-2.26-1.65-4.47-3.26-6.61-4.91
		c-0.06-0.06-0.15-0.12-0.21-0.15c-3.14-2.41-6.2-4.79-9.17-7.2c-1.03-0.79-2.03-1.62-3-2.44c-0.97-0.79-1.97-1.59-2.91-2.41
		c-1.94-1.59-3.82-3.2-5.64-4.79c-1.53-1.32-3.03-2.62-4.47-3.91c-0.29-0.26-0.59-0.53-0.88-0.79c-0.88-0.76-1.7-1.53-2.56-2.32
		c-1.56-1.41-3.12-2.82-4.61-4.23c-0.09-0.09-0.18-0.18-0.26-0.26c-1.59-1.47-3.12-2.91-4.58-4.35c-1.59-1.53-3.14-3.03-4.64-4.53
		c-1.29-1.29-2.56-2.53-3.73-3.76c-1.21-1.21-2.35-2.41-3.41-3.53c-0.29-0.29-0.56-0.56-0.79-0.82c-1.5-1.53-2.85-3.03-4.11-4.38
		c-0.44-0.47-0.85-0.91-1.23-1.35c-0.47-0.5-0.91-1-1.32-1.47c-0.82-0.88-1.59-1.7-2.26-2.5c-0.38-0.44-0.76-0.85-1.12-1.26
		c0.44-0.53,0.94-1.06,1.44-1.65c0.88-0.97,1.82-2.03,2.85-3.17c1.06-1.15,2.17-2.35,3.38-3.64c1.56-1.65,3.23-3.41,5.03-5.29
		c1.06-1.12,2.17-2.23,3.32-3.38c0.18-0.15,0.32-0.32,0.5-0.5c1.65-1.65,3.38-3.35,5.2-5.14c1.82-1.76,3.73-3.59,5.73-5.47
		c0.97-0.88,1.97-1.79,2.97-2.73c1.47-1.35,3-2.73,4.56-4.14c2.2-1.94,4.5-3.94,6.85-5.97c1.03-0.88,2.06-1.73,3.09-2.62
		c2.06-1.73,4.2-3.5,6.38-5.26c1.03-0.82,2.06-1.65,3.12-2.47c0.24-0.21,0.47-0.41,0.73-0.59c2.06-1.65,4.2-3.29,6.35-4.91
		c0,0,0,0,0.03-0.03c1.15-0.85,2.32-1.73,3.53-2.62c3.26-2.44,6.61-4.82,10.05-7.2c5.88,24.39,14.02,46.67,24.31,66.39v0.06
		c-10.55,19.72-18.93,42-25.01,66.54C207.43,449.32,205.23,447.76,203.08,446.2z M330.08,568.31l-0.97,0.21l-1-1.56l-4.97,1.03
		c-0.59,0.12-1.18,0.23-1.76,0.35l-1.35,0.26c-47.88,9.49-91.02,7.85-106.48,6.79c-0.38-5.67-0.85-15.08-0.82-27.04v-0.03
		c0.12-19.72,1.7-49.99,8.55-82.32l0.12-0.59c5.14-24.22,12.55-46.32,22.01-65.86c8.46,13.67,18.13,25.98,28.89,36.74
		c1.97,1.94,3.94,3.85,5.88,5.7c13.43,12.67,27.21,23.19,41.09,31.24c7.96,13.61,18.34,27.24,30.8,40.59
		c2.23,2.38,4.53,4.76,6.94,7.17c9.79,9.79,20.98,18.75,33.33,26.74c-18.05,8.64-38.24,15.55-60.25,20.54V568.31z M473.59,582.42
		c-2.44,3.5-4.91,6.91-7.38,10.23c-16.22,21.72-32.86,39.35-45.17,51.31c-0.68,0.68-1.35,1.32-2,1.94
		c-5.23,5.03-9.55,8.91-12.55,11.52l-0.03,0.03c-1.76-1.53-3.97-3.5-6.55-5.91c-0.21-0.15-0.41-0.35-0.59-0.53
		c-3.41-3.17-7.44-6.99-11.87-11.43c-1.53-1.53-3.09-3.12-4.64-4.76c-1.5-1.5-3-3.09-4.5-4.7c-4.61-4.88-9.46-10.23-14.4-16.08
		c-0.85-0.97-1.68-1.94-2.5-2.94c-2.35-2.76-4.7-5.64-7.05-8.61c-1.85-2.35-3.73-4.76-5.58-7.23c-2.56-3.35-5.08-6.79-7.58-10.35
		c-0.85-1.18-1.7-2.38-2.5-3.59c24.54-6,46.88-14.25,66.63-24.69h0.06C425.5,567.55,448.37,576.22,473.59,582.42z M530.37,424.6
		c-1.91,1.88-3.79,3.7-5.7,5.5c-13.4,12.73-27.1,23.13-40.7,30.92l-1.73,1l-1,1.73c-7.58,13.34-17.72,26.8-30.15,39.94
		c-1.76,1.88-3.59,3.79-5.44,5.64c-11.55,11.52-25.04,21.78-40.21,30.48c-14.37-8.49-27.13-18.28-38.03-29.21
		c-2.29-2.29-4.5-4.56-6.61-6.82c-12.23-13.05-22.25-26.36-29.8-39.56l-1-1.76l-1.73-0.97c-13.4-7.64-26.86-17.78-39.97-30.18
		c-1.91-1.79-3.79-3.61-5.64-5.44c-11.81-11.81-22.31-25.75-31.18-41.47c8.67-14.9,18.72-28.1,29.92-39.26
		c2.26-2.26,4.53-4.44,6.79-6.58c13.05-12.23,26.36-22.25,39.62-29.83l1.76-1l1-1.76c7.38-13.02,17.13-26.07,29.07-38.79
		c2.09-2.26,4.23-4.53,6.52-6.79c11.23-11.26,24.42-21.31,39.26-29.92c15.75,8.88,29.68,19.37,41.5,31.21
		c1.88,1.85,3.64,3.7,5.41,5.58c12.7,13.4,23.13,27.13,30.95,40.79l1,1.76l1.76,1c12.96,7.32,26.01,17.08,38.85,29.04
		c2.35,2.2,4.56,4.32,6.76,6.55c10.93,10.93,20.75,23.72,29.21,38.03C552.12,399.59,541.89,413.08,530.37,424.6z M568.75,369.29
		c-7.96-12.31-16.93-23.48-26.72-33.27c-2.32-2.35-4.67-4.61-7.17-6.94c-13.08-12.2-26.48-22.31-39.85-30.09
		c-8.29-14.11-19.07-28.18-32.01-41.82c-1.88-2-3.79-4-5.76-5.94c-10.7-10.73-23.01-20.4-36.71-28.86
		c19.43-9.4,41.41-16.75,65.45-21.9c50.14-10.73,96.13-8.99,112.18-7.91c0.38,5.38,0.82,14.11,0.85,25.19v0.03
		c-0.06,20.28-1.59,51.4-8.64,84.55l-0.88,5l0.15,0.09C584.62,330.08,577.63,350.8,568.75,369.29z M655.01,408.29
		c-2.23,2.15-4.56,4.35-7,6.61c-0.82,0.76-1.65,1.5-2.5,2.26c-0.82,0.79-1.68,1.56-2.56,2.32c-1.73,1.56-3.53,3.14-5.38,4.7
		c-0.91,0.82-1.85,1.65-2.79,2.41c-1.88,1.62-3.82,3.23-5.79,4.85c-4.94,4.06-10.17,8.17-15.66,12.23
		c-0.03,0.03-0.03,0.03-0.06,0.03c-1.65,1.23-3.35,2.47-5.05,3.67c-1.7,1.23-3.41,2.47-5.17,3.64
		c-6.17-24.6-14.69-46.94-25.39-66.68v-0.06c10.43-19.69,18.72-42.06,24.72-66.57v-0.03c0.94,0.65,1.85,1.29,2.76,1.94
		c1.26,0.88,2.5,1.76,3.7,2.64c1.32,0.94,2.59,1.85,3.85,2.79c2.23,1.65,4.41,3.29,6.55,4.94c1.26,0.97,2.5,1.94,3.7,2.91
		c1.12,0.88,2.23,1.76,3.32,2.64c3.82,3.09,7.49,6.14,10.96,9.14c2.5,2.15,4.91,4.29,7.23,6.38c8.85,7.99,16.34,15.4,22.28,21.6
		c0.91,0.94,1.76,1.85,2.56,2.7c2.53,2.67,4.7,5.05,6.52,7.11c0.68,0.76,1.29,1.47,1.88,2.12
		C673.08,389.89,665.35,398.33,655.01,408.29z"/>
	<linearGradient id="SVGID_2_" gradientUnits="userSpaceOnUse" x1="400.0265" y1="273.7468" x2="413.0114" y2="498.9446">
		<stop  offset="7.512183e-07" style="stop-color:#F7D28E"/>
		<stop  offset="1" style="stop-color:#F49A40"/>
	</linearGradient>
	<path class="st1" d="M519.47,385.86c-6.23,11.28-13.9,21.98-23.37,31.45c-11.42,11.44-22.53,19.93-33.22,26.03
		c-5.98,10.54-14.29,21.49-25.48,32.67c-9.46,9.46-20.15,17.14-31.45,23.35c-10.73-6.04-20.88-13.43-29.9-22.47
		c-11.44-11.44-19.93-22.55-26.03-33.22c-10.56-5.98-21.49-14.31-32.67-25.48c-9.73-9.73-17.55-20.74-23.85-32.36
		c6.15-11.03,13.7-21.47,22.98-30.75c11.42-11.42,22.53-19.93,33.22-26.03c5.98-10.54,14.29-21.47,25.48-32.67
		c9.26-9.26,19.7-16.81,30.75-22.96c11.62,6.31,22.63,14.13,32.34,23.83c11.44,11.44,19.93,22.55,26.03,33.22
		c10.54,5.98,21.49,14.31,32.67,25.48C506.02,364.98,513.41,375.13,519.47,385.86z"/>
</g>
</svg>
